#!OML:ASF X:\für Bonn\!DataBase\2005_08_11_Bastian_Final\c3d\Bastian.ASF
:FULLY-SPECIFIED
:DEGREES
124
root -8.16095 16.6386 -11.1703 159.949 110.989 -559.984
lowerback 8.48544 2.1979 1.25729
upperback 5.93548 3.16556 0.673785
thorax 1.42172 1.68098 -0.229877
lowerneck -14.389 -2.27416 -4.33648
upperneck -0.462972 -2.34495 3.79919
head 2.48514 -0.988663 1.86341
rclavicle 9.93923e-016 3.18055e-015
rhumerus -48.5648 17.334 -95.6262
rradius 85.2527
rwrist 11.4222
rhand -17.4124 18.2419
rfingers 7.12502
rthumb 8.83738 -11.5531
lclavicle 9.93923e-016 3.18055e-015
lhumerus -51.8425 -21.138 96.2044
lradius 75.1571
lwrist 23.6078
lhand -8.57588 -9.92346
lfingers 7.12502
lthumb 17.3547 19.3217
rfemur -3.80193 -12.3445 19.6273
rtibia 83.1028
rfoot 8.77341 3.24373
rtoes -23.5707
lfemur -24.0821 1.22673 -28.4127
ltibia 44.8305
lfoot -14.9885 -10.8147
ltoes 12.2413
125
root -7.94957 16.5206 -11.0119 159.593 110.473 -559.8
lowerback 9.01304 2.12497 0.615801
upperback 6.1119 3.04303 0.615132
thorax 1.28445 1.60766 0.0575325
lowerneck -14.4714 -2.23108 -4.31191
upperneck -0.593362 -2.28713 3.94801
head 2.4562 -0.95128 1.9122
rclavicle -3.99557e-014 1.03368e-014
rhumerus -48.4291 16.4539 -95.1632
rradius 82.2171
rwrist 11.4742
rhand -18.2853 17.9389
rfingers 7.12502
rthumb 7.99494 -11.8899
lclavicle -3.99557e-014 1.03368e-014
lhumerus -50.2165 -21.1007 96.501
lradius 74.2122
lwrist 22.6973
lhand -8.20588 -9.62789
lfingers 7.12502
lthumb 17.7107 19.5855
rfemur -5.2513 -12.3824 18.9949
rtibia 86.1011
rfoot 7.8865 2.90071
rtoes -21.0805
lfemur -23.8429 1.10953 -28.5553
ltibia 47.1494
lfoot -15.0989 -10.9461
ltoes 16.6578
126
root -7.73746 16.4067 -10.8576 159.26 109.928 -559.564
lowerback 9.59985 2.05072 -0.0429088
upperback 6.27896 2.9118 0.565653
thorax 1.10826 1.52971 0.36412
lowerneck -14.4179 -2.17174 -4.41034
upperneck -0.818718 -2.19489 4.22782
head 2.37387 -0.893399 2.0292
rclavicle -3.22031e-014 1.27222e-014
rhumerus -48.2331 15.6454 -94.609
rradius 78.8651
rwrist 11.3312
rhand -19.182 17.8001
rfingers 7.12502
rthumb 7.12945 -12.0598
lclavicle -3.22031e-014 1.27222e-014
lhumerus -48.5746 -21.1127 96.8295
lradius 73.3736
lwrist 21.6669
lhand -7.82795 -9.30811
lfingers 7.12502
lthumb 18.0744 19.8721
rfemur -6.72415 -12.4586 18.3395
rtibia 88.988
rfoot 6.733 2.66994
rtoes -19.2336
lfemur -23.4803 0.958842 -28.708
ltibia 49.3667
lfoot -15.5663 -11.102
ltoes 20.4049
127
root -7.5255 16.2962 -10.7072 158.966 109.392 -559.308
lowerback 10.2123 1.9813 -0.679317
upperback 6.42077 2.78058 0.503528
thorax 0.898413 1.45297 0.646087
lowerneck -14.3201 -2.09688 -4.55304
upperneck -1.03398 -2.08063 4.619
head 2.28931 -0.821754 2.1935
rclavicle 2.127e-014 2.38542e-015
rhumerus -48.0957 14.7963 -94.0221
rradius 75.4388
rwrist 11.1056
rhand -20.0037 17.7037
rfingers 7.12502
rthumb 6.33628 -12.1816
lclavicle 2.127e-014 2.38542e-015
lhumerus -46.9837 -21.2243 97.1752
lradius 72.7087
lwrist 20.6329
lhand -7.55448 -9.12334
lfingers 7.12502
lthumb 18.3375 20.0323
rfemur -8.32462 -12.5479 17.7018
rtibia 91.7554
rfoot 5.31968 2.45728
rtoes -18.3111
lfemur -23.0365 0.900149 -28.8529
ltibia 51.4237
lfoot -16.34 -11.4418
ltoes 22.9897
128
root -7.31074 16.1932 -10.5611 158.636 108.862 -559.104
lowerback 10.8412 1.91567 -1.2853
upperback 6.54541 2.64878 0.468126
thorax 0.666605 1.37708 0.940293
lowerneck -14.1339 -2.01996 -4.78555
upperneck -1.30538 -1.95182 5.07505
head 2.17186 -0.74214 2.39705
rclavicle -1.2921e-014 -6.36111e-015
rhumerus -48.0572 13.9918 -93.3398
rradius 72.0403
rwrist 10.7026
rhand -20.6557 17.4987
rfingers 7.12502
rthumb 5.70678 -12.4045
lclavicle -1.2921e-014 -6.36111e-015
lhumerus -45.5122 -21.4969 97.6208
lradius 72.3516
lwrist 19.7029
lhand -7.37318 -9.14614
lfingers 7.12502
lthumb 18.5119 19.993
rfemur -9.9726 -12.5898 17.1215
rtibia 94.3279
rfoot 3.65636 2.07435
rtoes -17.6089
lfemur -22.4287 0.847174 -28.9651
ltibia 53.2315
lfoot -17.3956 -11.7893
ltoes 24.6557
129
root -7.09033 16.1009 -10.42 158.347 108.323 -558.898
lowerback 11.4606 1.84133 -1.8518
upperback 6.60856 2.49834 0.432929
thorax 0.382422 1.29342 1.21633
lowerneck -13.8624 -1.91728 -5.0799
upperneck -1.54211 -1.78575 5.57164
head 2.0503 -0.645318 2.62898
rclavicle -1.15295e-014 9.54166e-015
rhumerus -48.1575 13.2182 -92.6238
rradius 68.6937
rwrist 10.1219
rhand -21.0318 17.1301
rfingers 7.12502
rthumb 5.34365 -12.7825
lclavicle -1.15295e-014 9.54166e-015
lhumerus -44.248 -21.9242 98.1622
lradius 72.3386
lwrist 18.9896
lhand -7.29009 -9.44505
lfingers 7.12502
lthumb 18.5918 19.6865
rfemur -11.6584 -12.5487 16.5903
rtibia 96.6581
rfoot 1.79717 1.47402
rtoes -16.9618
lfemur -21.6332 0.759092 -29.0764
ltibia 54.7072
lfoot -18.6005 -11.9953
ltoes 25.8107
130
root -6.86716 16.0292 -10.2841 158.015 107.791 -558.832
lowerback 12.0068 1.76916 -2.30584
upperback 6.63642 2.35377 0.37708
thorax 0.109628 1.21638 1.41198
lowerneck -13.6284 -1.82745 -5.228
upperneck -1.73807 -1.65517 5.95405
head 1.94542 -0.570352 2.79322
rclavicle 1.98785e-014 -1.66979e-014
rhumerus -48.3381 12.3968 -91.8832
rradius 65.4967
rwrist 9.49748
rhand -21.1528 16.5861
rfingers 7.12502
rthumb 5.22679 -13.3294
lclavicle 1.98785e-014 -1.66979e-014
lhumerus -43.1167 -22.5728 98.705
lradius 72.7071
lwrist 18.4846
lhand -7.1552 -9.94992
lfingers 7.12502
lthumb 18.7216 19.1692
rfemur -13.443 -12.473 16.2053
rtibia 98.6912
rfoot -0.110955 0.796267
rtoes -17.139
lfemur -20.6857 0.833013 -29.1019
ltibia 55.7937
lfoot -19.754 -12.3447
ltoes 26.7735
131
root -6.64027 15.9815 -10.1507 157.608 107.27 -558.911
lowerback 12.4821 1.68621 -2.73548
upperback 6.63981 2.19245 0.36161
thorax -0.147587 1.13117 1.6422
lowerneck -13.4386 -1.73267 -5.29027
upperneck -1.87877 -1.52629 6.15035
head 1.86127 -0.502397 2.87792
rclavicle -2.22639e-014 -9.54166e-015
rhumerus -48.5193 11.6622 -91.0979
rradius 62.3844
rwrist 8.83999
rhand -21.0351 15.8972
rfingers 7.12502
rthumb 5.34044 -14.0155
lclavicle -2.22639e-014 -9.54166e-015
lhumerus -42.0766 -23.2032 99.3017
lradius 73.3894
lwrist 18.1892
lhand -6.92808 -10.6895
lfingers 7.12502
lthumb 18.94 18.4084
rfemur -15.286 -12.4 15.9263
rtibia 100.408
rfoot -1.96086 0.019323
rtoes -17.1947
lfemur -19.558 1.01341 -29.0191
ltibia 56.4706
lfoot -20.7851 -12.979
ltoes 27.8419
132
root -6.40684 15.9466 -10.0215 157.394 106.719 -558.922
lowerback 12.753 1.58368 -3.11594
upperback 6.63498 2.01057 0.318734
thorax -0.297298 1.03582 1.82709
lowerneck -13.304 -1.65201 -5.3223
upperneck -1.99164 -1.41702 6.26801
head 1.7953 -0.445983 2.92908
rclavicle -8.74653e-015 7.95139e-016
rhumerus -48.5579 10.8929 -90.2908
rradius 59.2438
rwrist 8.35827
rhand -20.7401 15.2657
rfingers 7.12502
rthumb 5.62525 -14.6396
lclavicle -8.74653e-015 7.95139e-016
lhumerus -41.0753 -23.8467 99.8858
lradius 74.363
lwrist 18.0007
lhand -6.52907 -11.4775
lfingers 7.12502
lthumb 19.3237 17.5824
rfemur -17.2588 -12.2711 15.6508
rtibia 101.872
rfoot -3.76318 -0.811104
rtoes -16.5461
lfemur -18.3767 1.10433 -28.9622
ltibia 56.8113
lfoot -21.7055 -13.6685
ltoes 28.8053
133
root -6.16654 15.9222 -9.89568 156.989 106.214 -559.239
lowerback 12.8455 1.45665 -3.35328
upperback 6.59701 1.81281 0.292142
thorax -0.380238 0.933824 1.95595
lowerneck -13.1147 -1.57199 -5.35131
upperneck -2.08619 -1.31175 6.30189
head 1.72411 -0.395649 2.95007
rclavicle -5.1684e-015 1.03368e-014
rhumerus -48.7355 10.2309 -89.5037
rradius 56.2841
rwrist 8.04766
rhand -20.4477 14.8259
rfingers 7.12502
rthumb 5.90755 -15.0718
lclavicle -5.1684e-015 1.03368e-014
lhumerus -40.2496 -24.4892 100.489
lradius 75.6609
lwrist 17.8769
lhand -5.95002 -12.1505
lfingers 7.12502
lthumb 19.8804 16.8527
rfemur -19.3051 -12.0743 15.5341
rtibia 103.073
rfoot -5.38161 -1.6906
rtoes -15.4607
lfemur -17.1414 1.0072 -28.8036
ltibia 56.8786
lfoot -22.5061 -14.3595
ltoes 29.9236
134
root -5.92323 15.9095 -9.77224 156.743 105.687 -559.742
lowerback 12.5346 1.27687 -3.57474
upperback 6.49528 1.55428 0.29547
thorax -0.309034 0.796393 2.1232
lowerneck -13.0011 -1.47685 -5.45678
upperneck -2.1417 -1.17359 6.33205
head 1.67852 -0.327593 2.98706
rclavicle 8.94531e-015 8.74653e-015
rhumerus -48.9834 9.70979 -88.7207
rradius 53.5258
rwrist 7.92795
rhand -20.1892 14.6318
rfingers 7.12502
rthumb 6.15717 -15.2587
lclavicle 8.94531e-015 8.74653e-015
lhumerus -39.4048 -25.0839 101.077
lradius 77.0968
lwrist 17.8493
lhand -5.23313 -12.663
lfingers 7.12502
lthumb 20.5694 16.2673
rfemur -21.7176 -11.8648 15.5439
rtibia 104.051
rfoot -6.78032 -2.54704
rtoes -13.6975
lfemur -16.1781 0.813412 -28.6075
ltibia 56.7341
lfoot -23.1911 -15.0302
ltoes 30.8139
135
root -5.67754 15.9115 -9.65148 156.372 105.189 -560.607
lowerback 11.9748 1.05897 -3.68505
upperback 6.33113 1.26141 0.307515
thorax -0.163432 0.641105 2.24262
lowerneck -12.9026 -1.36713 -5.50259
upperneck -2.16743 -1.02429 6.28445
head 1.64244 -0.256363 2.98665
rclavicle -6.95746e-015 -1.59028e-015
rhumerus -49.2787 9.31978 -88.0106
rradius 50.9797
rwrist 7.93571
rhand -20.0281 14.6416
rfingers 7.12502
rthumb 6.31264 -15.2443
lclavicle -6.95746e-015 -1.59028e-015
lhumerus -38.5776 -25.7676 101.603
lradius 78.6473
lwrist 17.9762
lhand -4.44405 -12.8912
lfingers 7.12502
lthumb 21.3275 15.9552
rfemur -24.3365 -11.6578 15.7046
rtibia 104.752
rfoot -8.09778 -3.42247
rtoes -12.1039
lfemur -15.3532 0.556575 -28.31
ltibia 56.3703
lfoot -23.7612 -15.6604
ltoes 31.2566
